# xmcd
#
# Track frame offsets:
#	150
#	20185
#	37635
#	55312
#	69770
#	89610
#	116787
#	138355
#	159090
#	177762
#	194420
#	211787
#	228172
#	246012
#	264545
#	282152
#	300327
#	320242
#
# Disc length: 4434 seconds
#
# Revision: 0
# Processed by: cddbd v1.5.2PL0 Copyright (c) Steve Scherf et al.
# Submitted via: EasyCDDAExtractor 10.0.5.1
#
DISCID=f1115012
DTITLE=Various Artist - 首選皇牌精典金曲系列之絕版情歌合唱CD2
DYEAR=2006
DGENRE=Duet
TTITLE0=巫啟賢/方麗儀 - 只愛一點點
TTITLE1=陳艾湄/周裕先 - 我悄悄蒙上你的眼睛
TTITLE2=陳艾湄/鐘本偉 - 我擁有你的心
TTITLE3=蔡琴/潘安邦 - 盼與寄
TTITLE4=劉家昌/劉艾靈 - 一夜一夜的夢
TTITLE5=千百惠/劉家昌 - 今又龍年
TTITLE6=楊林/黃卓穎 - 我們之間
TTITLE7=齊秦/楊林 - 輝煌的日子
TTITLE8=楊林/黃卓穎 - 過往的你
TTITLE9=林淑娟/洪榮宏 - 今夜的回憶
TTITLE10=姚乙/林淑娟 - 愛的承諾
TTITLE11=陳亮吟/王識賢 - 再回首
TTITLE12=OA BY 伍思凱 - 等著你愛著你
TTITLE13=OA BY 趙傳 - 我終於失去了你
TTITLE14=韓寶儀/佚名 - 相思悠悠
TTITLE15=陳亮吟/王識賢 - 背影
TTITLE16=王識賢/陳亮吟 - 我曾經相信愛情
TTITLE17=明珠姐妹 - 天鱷
EXTD=
EXTT0=
EXTT1=
EXTT2=
EXTT3=
EXTT4=
EXTT5=
EXTT6=
EXTT7=
EXTT8=
EXTT9=
EXTT10=
EXTT11=
EXTT12=
EXTT13=
EXTT14=
EXTT15=
EXTT16=
EXTT17=
PLAYORDER=
